<svg id="Layer_2_copy" data-name="Layer 2 copy" xmlns="http://www.w3.org/2000/svg" viewBox="0 0 6016 2321"><title>newYork</title><path d="M5969,1592v-4.67L5911,1559v-10h-16v-9h-61v-3h-22v3h-72v-9h-31v-31h-12V1271.33L5617,1286v19h-22v10h-9v182h-22V1329h-20v-5h-8v-12.33l-48.25-2.67-14.75,4v9h-21v93.33l-17-5.33v-86.67L5407,1294v-6l-6.08-4.67L5394,1288v5h-10v-19.08l-3-2.92v-5l-16-5v-11.33l-20.42-4L5321,1251v8.33l-4,6.67h-15v20h-32v-47.33l-26-2.67v-26h-72v-11h-66v16l-10-2h-48v5h-8v11h5v43l-17,24h-8v20.67l-34-2.67v-10h-12v-7.67l-47-3.33v-13.67l-25.83-2.25L4899,1266h-4v-12.83l-1-1.17h-5.66l-2.34,2v11.33l-4,13.67h-9v16h-21v-13h-20v-22h-21v8h-14v18h-28v-22.83l-20.33-2.17-15.67-7v-5h-13v-62h-28v-3h-6v-6h-9v-3h-39v-20h-2v-19h-12v-17l-29.16-25.33-46.12-2.5L4512,1094.5l-30,26.5v17h-9v-39.5l-24-2.5v-4h-18v4l-34,7v12h-6v-24h-5v4h-14v-5h-5v23h-10v4h-10v9h-3v12h-4v27h-1v92l-48,2v25h-7v3h-2v-4.83l-2.58-2.5L4277,1282v4h-2v-10.33L4247,1212h-7V1107h-16v-42h-4v-22.83l-34-1.17v-14h-3.5c-24.67-57-108.67-54-129.5,1h-4v15h-7V809h-7v-2H3890.17L3868,814V940h-13V923.83l-83.91-51.17L3688,932v6.83l-1,.17v6.83l-3.91.84-15.37-592.33-22.94-8.83c2.62-4,1.29-6.14-1.14-9,2.07-3.58,2.89-6-1.32-9.17,3.84-5.12,3.35-8.11-1.33-12-20.56-2.91-36.43-4-51.08-3.42L3583,51h-2l-8.21,262.51A211.15,211.15,0,0,0,3538,322v15.67l-46.08,5.83-21.29,772.67L3465,1120V855.33c-34-16.78-120.18-22.72-212.5-25.33L3217,848v71.33L3165,930v279h-33V1076h-12v-26h-11.66l-2.34-3h-6v3h-14.33l-7.67,3v23.83l-4,3.17v68.17l-4,2.83v18.17l-10,9.83v18.17l-4,1.83v69h-87V1144c0-10-5-10-5,0h-3v-96.67l-5-13.33V989.33l-6-3.33v-8.83l-16.92.5-1.87-6.5-1.85,9.17L2859,986v201.84l-2.92-2.75L2853,1188v81.75l-4,4.25v66h-7v-16h-15v-34h-6.16l-7.75-7.92L2805,1290h-21.33l-8.67,3v-16h-29v-36.83l-12-8.17v-33h-8v-10h-11v-8h-21.16l-4.84,3v4h-2v-3h-0.83l-17,9.5-0.42,5.63L2661,1204v34.17l-12,6.83v42h-62.5l-3.5,4h-5v-20.5l-27-1.5v-14.33l-4-1.67v-22.5l-8.58-6L2530,1231v20l-5,4v14h-11v-2h-18v-2h-9v-6h-5v-3h-6v2h-3v-2h-4v3h-3v-3h-6v6h-7v-25h-62V1111h-35v-39h-26c-4.81,14-5.24,24-4,39h-5v-3.33l-35,5.33v188h5v29h-4.17l-2-38.42L2279,1273h-2v3h-2v6h-2v-13h3v-3h-3v-6.5l-4-.5v-7.16l-3-2.84v-30.08l-6-5.92v-13.17l-3-1.83v-11.27a3.5,3.5,0,0,0,2.5-3.73,4.15,4.15,0,0,0-4.12-4.25,4.41,4.41,0,0,0-4.44,4.25,4.85,4.85,0,0,0,2.06,3.73v11.77l-3,1.5v13.33l-5,5.67v-3.5l-2,.5v33l-2,1v9h-2v-7.17l-2,2.17v25.83l-2.67-7-7.46,25.08L2225,1330h-9v3h-8v-3h-11v2h-10v-3h-36v-8h-2v7l-17,10h-5v7h-7v131h-25v-97h-13v-92.5l-6.33-2.42L2076,1254h-11v-9h-4v-4h-12v-9.83l-3-8.17h-3.5l-1.5-3.5c-0.16-14.52-23.57-14.39-23.42.13L2009,1230v10h-2v-24h-20v-6.17l-3-2.83v-6l-1,1v5.17l-4,2.83v4.67l-19,2.33v-3h-3v19.58l-2,3.42h-16v-5h-4v4h-24.83l-17.17,4v57h-8v-5h-13v5h-5V1196h-2v-11l-4-5h-18v-29.87l-9-10.12h-81v3h-98c0-11-21-11-21,0h-34v66h-21v48h-12v6h-2v13h-1v23h-2v40h-2v8h-22v15h-3v28h-5V1229h-39v-21h-26.5l-18.5,3v23h-49v-5h-3v4h-21.37l-15.62,3v147h-8v-12h-3v-9h-4v-10h-9v10h-4v9h-4v12h-4v18h-9v-15h-4v-5h-25v-16h-4v-14h-3V1223h-45v-6h-3v6h-50v-25h-28.37l-14.62,3v22h-6.5l-27.5,6v136h6v41h-16v-11h-27V1053h-12v-14h-20.5c-3.46-14-5.5-29.42-3.5-33v-2h-17.87l1.88-4h-4v-8.75l4.63-4.87L978,968.25l-83.94,37,3.66,2.88-0.11,4.75L879,1020v12.88L853,1043v17l-11,6v230.63l-8,3.38v80H785v-10H761.5l-3.5-2v-26.37L751,1330h-7.37L735,1342v27h-5v-9H713v9H694v-85H683v-5H673v-11h-5v-11H658v-16l-19.75-10.25-0.06-26.06L612,1195v-31.31l-2-1.69v-19h-1v19.25l-2,1.75v31.81l-12.56,8.94-7-4.81,0.06-56.12L584,1138v-20.12l-1-.75-1,.88v20.25l-4,5.75v57H554v14H540v4h-7v18h-3v44H511v24h-4v91H491v13.5l-4,7.5H472v5H437v-12H411v12h-7v-10h-7v-16.75L394,1384H376v-23.75l-12-.25v-13l-5.13-4.25L353,1347v14H340l-17,35v43l-4,4v19H304v-23.75l-6-6.25H196v11h-5v38H93v25H58.33L58,1535H35v57H0v780H6016V1592h-47Z" transform="translate(0 -51)"/></svg>